Coordinates
version=1
nRows=6
nColumns=63
inDegrees=yes

Units are S.I. units (second, meters, Newtons, ...)
If the header above contains a line with 'inDegrees', this indicates whether rotational values are in degrees (yes) or radians (no).

endheader
time	pelvis_tilt	pelvis_list	pelvis_rotation	pelvis_tx	pelvis_ty	pelvis_tz	hip_flexion_r	hip_adduction_r	hip_rotation_r	knee_angle_r	knee_angle_r_beta	ankle_angle_r	subtalar_angle_r	mtp_angle_r	hip_flexion_l	hip_adduction_l	hip_rotation_l	knee_angle_l	knee_angle_l_beta	ankle_angle_l	subtalar_angle_l	mtp_angle_l	L5_S1_Flex_Ext	L5_S1_Lat_Bending	L5_S1_axial_rotation	L4_L5_Flex_Ext	L4_L5_Lat_Bending	L4_L5_axial_rotation	L3_L4_Flex_Ext	L3_L4_Lat_Bending	L3_L4_axial_rotation	L2_L3_Flex_Ext	L2_L3_Lat_Bending	L2_L3_axial_rotation	L1_L2_Flex_Ext	L1_L2_Lat_Bending	L1_L2_axial_rotation	L1_T12_Flex_Ext	L1_T12_Lat_Bending	L1_T12_axial_rotation	Abs_r3	Abs_r2	Abs_r1	Abs_t1	Abs_t2	neck_flexion	neck_bending	neck_rotation	arm_flex_r	arm_add_r	arm_rot_r	elbow_flex_r	pro_sup_r	wrist_flex_r	wrist_dev_r	arm_flex_l	arm_add_l	arm_rot_l	elbow_flex_l	pro_sup_l	wrist_flex_l	wrist_dev_l
1.866667	1.500553	2.140582	100.006219	0.128807	0.607210	0.820069	-1.376858	-2.084832	-16.251117	5.518973	0.096324	28.118509	15.640318	0.000000	-0.067565	2.513502	18.171574	0.774058	0.013510	21.836369	-13.884110	0.000000	0.088470	-0.067182	-1.235511	0.164297	-0.089351	-1.312730	0.145347	-0.163345	-1.312730	0.101112	-0.163345	-1.081072	0.082153	-0.136997	-1.003853	0.050552	-0.104064	-0.926633	0.631931	-0.759971	-6.871542	0.000000	0.000000	23.558189	4.117681	9.045362	13.279348	-12.300119	103.951132	19.332693	22.504010	-2.116863	-4.838418	-3.589062	-14.610024	31.376536	38.061761	86.918091	-5.296289	6.708336
1.883333	1.551593	2.075316	100.239432	0.128220	0.607238	0.820303	-1.363354	-2.040968	-16.377807	5.401237	0.094269	28.035716	15.614790	0.000000	0.045481	2.488845	18.459549	0.822849	0.014361	21.781172	-13.903541	0.000000	0.095589	-0.057048	-1.288465	0.177519	-0.075874	-1.368994	0.157043	-0.138708	-1.368994	0.109249	-0.138708	-1.127407	0.088764	-0.116333	-1.046878	0.054620	-0.088368	-0.966349	0.682783	-0.645344	-7.166056	0.000000	0.000000	23.863105	4.021295	9.042542	13.364046	-12.527971	102.561967	19.890859	24.397063	-2.575466	-5.255077	-3.356357	-14.474494	31.597893	37.873515	86.789429	-5.178688	6.327715
1.900000	1.602047	1.967105	100.516018	0.127546	0.607225	0.820803	-1.304522	-2.008501	-16.521955	5.260459	0.091812	27.924539	15.574545	0.000000	0.233038	2.483824	18.776884	0.892212	0.015572	21.694526	-13.928519	0.000000	0.104362	-0.047136	-1.348387	0.193811	-0.062691	-1.432661	0.171457	-0.114607	-1.432661	0.119276	-0.114607	-1.179839	0.096911	-0.096120	-1.095564	0.059633	-0.073014	-1.011290	0.745450	-0.533216	-7.499324	0.000000	0.000000	24.183362	3.918100	9.059518	13.512136	-12.780513	101.029206	20.570760	26.809875	-3.166585	-5.613331	-2.997516	-14.348900	32.092983	37.603491	86.478374	-5.280309	5.645387
1.916667	1.654084	1.797665	100.830876	0.126795	0.607151	0.821611	-1.173618	-1.991035	-16.688898	5.102603	0.089057	27.780841	15.512404	0.000000	0.521826	2.505676	19.099025	0.990618	0.017290	21.577976	-13.954274	0.000000	0.117106	-0.036833	-1.418550	0.217477	-0.048988	-1.507209	0.192393	-0.089556	-1.507209	0.133840	-0.089556	-1.241231	0.108744	-0.075110	-1.152572	0.066914	-0.057055	-1.063912	0.836473	-0.416664	-7.889549	0.000000	0.000000	24.507724	3.822490	9.202392	13.706801	-13.048759	99.261133	21.367525	29.740185	-3.912154	-5.952626	-2.586156	-14.199794	32.585721	37.250931	85.967451	-5.445948	4.675867
1.933333	1.703294	1.578272	101.160501	0.126015	0.607029	0.822741	-0.976538	-1.991951	-16.878291	4.931617	0.086073	27.622376	15.472079	0.000000	0.901863	2.553786	19.400612	1.123613	0.019611	21.443148	-13.954083	0.000000	0.132676	-0.027482	-1.490210	0.246392	-0.036551	-1.583348	0.217973	-0.066819	-1.583348	0.151635	-0.066819	-1.303934	0.123203	-0.056041	-1.210796	0.075811	-0.042569	-1.117658	0.947690	-0.310879	-8.288102	0.000000	0.000000	24.817542	3.727286	9.351608	13.939855	-13.301125	97.395056	22.242330	32.678505	-4.723037	-6.372476	-2.111594	-14.043211	33.155513	36.826213	85.240070	-5.801098	3.499324
1.950000	1.752665	1.325599	101.484669	0.125224	0.606862	0.824221	-0.718952	-2.007571	-17.059042	4.758988	0.083060	27.459947	15.432837	0.000000	1.365202	2.625370	19.617909	1.305931	0.022793	21.326749	-13.876644	0.000000	0.148338	-0.017644	-1.558188	0.275479	-0.023467	-1.655575	0.243705	-0.042900	-1.655575	0.169536	-0.042900	-1.363415	0.137747	-0.035980	-1.266028	0.084761	-0.027331	-1.168641	1.059566	-0.199593	-8.666175	0.000000	0.000000	25.106274	3.645628	9.566523	14.205883	-13.541543	95.299515	23.182795	35.600731	-5.629731	-6.903522	-1.544955	-13.877579	33.873413	36.333152	84.447451	-6.321134	2.270900
